<svg xmlns="http://www.w3.org/2000/svg" xmlns:svg="http://www.w3.org/2000/svg" version="1.1" id="svg1" xml:space="preserve" height="100%" width="100%" viewBox="0 0 210 297"><g id="g1" transform="matrix(0.26458333,0,0,0.26458334,220.00001,0)"><g id="g148"><path id="path75" d="m -608.60792,312.12362 h -50.37766 c -2.9346,0 -5.31348,2.37889 -5.31348,5.31347 v 232.32865 c 0,2.93459 2.37888,5.31348 5.31348,5.31348 h 50.37766 c 2.93459,0 5.31347,-2.37889 5.31347,-5.31348 V 317.43709 c 0,-2.93458 -2.37888,-5.31347 -5.31347,-5.31347 z" style="fill:#e6f7fd;fill-opacity:0.4;fill-rule:nonzero;stroke:#000000;stroke-width:0.531333;stroke-linecap:butt;stroke-linejoin:miter;stroke-miterlimit:10;stroke-dasharray:3.98511, 3.98511;stroke-dashoffset:0;stroke-opacity:0.4"/><path id="path76" d="m -514.11856,349.91936 h -50.37768 c -2.93458,0 -5.31346,2.37888 -5.31346,5.31347 v 156.73715 c 0,2.9346 2.37888,5.31348 5.31346,5.31348 h 50.37768 c 2.93459,0 5.31347,-2.37888 5.31347,-5.31348 V 355.23283 c 0,-2.93459 -2.37888,-5.31347 -5.31347,-5.31347 z" style="fill:#e6ffe6;fill-opacity:0.4;fill-rule:nonzero;stroke:#000000;stroke-width:0.531333;stroke-linecap:butt;stroke-linejoin:miter;stroke-miterlimit:10;stroke-dasharray:3.98511, 3.98511;stroke-dashoffset:0;stroke-opacity:0.4"/><path id="path77" d="m -419.62921,349.91936 h -50.37764 c -2.93459,0 -5.31348,2.37888 -5.31348,5.31347 v 156.73715 c 0,2.9346 2.37889,5.31348 5.31348,5.31348 h 50.37764 c 2.9346,0 5.31348,-2.37888 5.31348,-5.31348 V 355.23283 c 0,-2.93459 -2.37888,-5.31347 -5.31348,-5.31347 z" style="fill:#fffee6;fill-opacity:0.4;fill-rule:nonzero;stroke:#000000;stroke-width:0.531333;stroke-linecap:butt;stroke-linejoin:miter;stroke-miterlimit:10;stroke-dasharray:3.98511, 3.98511;stroke-dashoffset:0;stroke-opacity:0.4"/><path id="path78" d="m -325.13984,349.91936 h -50.37765 c -2.93459,0 -5.31348,2.37888 -5.31348,5.31347 v 156.73715 c 0,2.9346 2.37889,5.31348 5.31348,5.31348 h 50.37765 c 2.93458,0 5.31346,-2.37888 5.31346,-5.31348 V 355.23283 c 0,-2.93459 -2.37888,-5.31347 -5.31346,-5.31347 z" style="fill:#fff2e6;fill-opacity:0.4;fill-rule:nonzero;stroke:#000000;stroke-width:0.531333;stroke-linecap:butt;stroke-linejoin:miter;stroke-miterlimit:10;stroke-dasharray:3.98511, 3.98511;stroke-dashoffset:0;stroke-opacity:0.4"/><path id="path79" d="m -230.65047,406.61296 h -50.37764 c -2.9346,0 -5.31348,2.37888 -5.31348,5.31348 v 50.37764 c 0,2.93458 2.37888,5.31348 5.31348,5.31348 h 50.37764 c 2.93458,0 5.31348,-2.3789 5.31348,-5.31348 v -50.37764 c 0,-2.9346 -2.3789,-5.31348 -5.31348,-5.31348 z" style="fill:#f2f2f2;fill-opacity:0.4;fill-rule:nonzero;stroke:#000000;stroke-width:0.531333;stroke-linecap:butt;stroke-linejoin:miter;stroke-miterlimit:10;stroke-dasharray:3.98511, 3.98511;stroke-dashoffset:0;stroke-opacity:0.4"/><path id="path80" d="m -717.2358,360.36542 c 0.0781,-0.34375 0.39063,-1.5625 1.3125,-1.5625 0.0625,0 0.39063,0 0.67188,0.17187 -0.375,0.0625 -0.64063,0.40625 -0.64063,0.71875 0,0.21875 0.14063,0.46875 0.5,0.46875 0.29688,0 0.71875,-0.25 0.71875,-0.78125 0,-0.6875 -0.78125,-0.875 -1.23437,-0.875 -0.76563,0 -1.23438,0.70313 -1.39063,1.01563 -0.34375,-0.875 -1.04687,-1.01563 -1.4375,-1.01563 -1.39062,0 -2.14062,1.71875 -2.14062,2.04688 0,0.14062 0.14062,0.14062 0.15625,0.14062 0.10937,0 0.15625,-0.0312 0.17187,-0.15625 0.45313,-1.40625 1.32813,-1.73437 1.78125,-1.73437 0.25,0 0.71875,0.125 0.71875,0.89062 0,0.40625 -0.21875,1.29688 -0.71875,3.15625 -0.20312,0.82813 -0.67187,1.39063 -1.26562,1.39063 -0.0781,0 -0.375,0 -0.65625,-0.17188 0.32812,-0.0781 0.625,-0.35937 0.625,-0.71875 0,-0.35937 -0.29688,-0.46875 -0.5,-0.46875 -0.39063,0 -0.71875,0.34375 -0.71875,0.76563 0,0.60937 0.65625,0.875 1.25,0.875 0.875,0 1.34375,-0.92188 1.39062,-1 0.15625,0.48437 0.64063,1 1.4375,1 1.35938,0 2.125,-1.70313 2.125,-2.04688 0,-0.125 -0.125,-0.125 -0.17187,-0.125 -0.10937,0 -0.14063,0.0469 -0.17188,0.14063 -0.4375,1.42187 -1.32812,1.75 -1.76562,1.75 -0.51563,0 -0.71875,-0.4375 -0.71875,-0.875 0,-0.29688 0.0781,-0.59375 0.21875,-1.17188 z m 0,0" style="fill:currentcolor;fill-opacity:1;fill-rule:nonzero;stroke:none;stroke-width:1.33333" aria-label="x"/><path id="path81" d="m -714.61861,471.4162 c 0.0625,-0.1875 0.0625,-0.20313 0.0625,-0.29688 0,-0.25 -0.1875,-0.35937 -0.39062,-0.35937 -0.14063,0 -0.34375,0.0781 -0.46875,0.26562 -0.0312,0.0781 -0.125,0.48438 -0.1875,0.71875 -0.0937,0.34375 -0.1875,0.70313 -0.26563,1.0625 l -0.59375,2.39063 c -0.0469,0.20312 -0.625,1.14062 -1.5,1.14062 -0.67187,0 -0.82812,-0.59375 -0.82812,-1.07812 0,-0.60938 0.23437,-1.43751 0.6875,-2.60938 0.20312,-0.54687 0.26562,-0.6875 0.26562,-0.95312 0,-0.59375 -0.4375,-1.09375 -1.09375,-1.09375 -1.26562,0 -1.75,1.9375 -1.75,2.04687 0,0.14063 0.125,0.14063 0.15625,0.14063 0.125,0 0.14063,-0.0312 0.20313,-0.25 0.35937,-1.25 0.89062,-1.64063 1.34375,-1.64063 0.10937,0 0.34375,0 0.34375,0.42188 0,0.32812 -0.14063,0.6875 -0.23438,0.9375 -0.53125,1.40624 -0.76562,2.15624 -0.76562,2.78124 0,1.1875 0.82812,1.57813 1.625,1.57813 0.51562,0 0.96875,-0.21875 1.32812,-0.59375 -0.17187,0.6875 -0.32812,1.34375 -0.85937,2.04687 -0.34375,0.45313 -0.84375,0.84375 -1.45313,0.84375 -0.1875,0 -0.79687,-0.0469 -1.01562,-0.5625 0.21875,0 0.39062,0 0.57812,-0.15625 0.125,-0.125 0.26563,-0.29687 0.26563,-0.54687 0,-0.42188 -0.35938,-0.46875 -0.5,-0.46875 -0.29688,0 -0.73438,0.21875 -0.73438,0.85937 0,0.67188 0.57813,1.15625 1.40625,1.15625 1.35938,0 2.73438,-1.20312 3.10938,-2.70312 z m 0,0" style="fill:currentcolor;fill-opacity:1;fill-rule:nonzero;stroke:none;stroke-width:1.33333" aria-label="y"/><path id="path82" d="m -648.91509,357.74427 h 30.23669 v -30.2367 h -30.23669 z" style="fill:#cceffc;fill-opacity:1;fill-rule:nonzero;stroke:#000000;stroke-width:0.531333;stroke-linecap:butt;stroke-linejoin:miter;stroke-miterlimit:10;stroke-dasharray:none;stroke-opacity:1"/><g id="g84" aria-label="A&#10;1" transform="matrix(1.3333333,0,0,1.3333333,-641.7589,346.16832)"><path id="path83" d="m 1.781,-1.1471016 c -0.3984375,0.66796879 -0.78515625,0.80859379 -1.21875,0.84375004 -0.12890625,0 -0.2109375,0 -0.2109375,0.19921875 0,0.05859375 0.046875,0.10546875 0.12890625,0.10546875 0.26953125,0 0.57421875,-0.03515625 0.85546875,-0.03515625 0.328125,0 0.6796875,0.03515625 0.9960938,0.03515625 0.058594,0 0.1875,0 0.1875,-0.1875 0,-0.1171875 -0.09375,-0.1171875 -0.1640625,-0.1171875 -0.2226563,-0.0234375 -0.4570313,-0.10546875 -0.4570313,-0.3515625 0,-0.1171875 0.058594,-0.234375 0.1289063,-0.37500004 l 0.7617187,-1.265625 h 2.4960938 c 0.023437,0.1992188 0.1640625,1.55859379 0.1640625,1.66406254 0,0.29296875 -0.515625,0.328125 -0.7148438,0.328125 -0.140625,0 -0.2460937,0 -0.2460937,0.19921875 0,0.10546875 0.1289062,0.10546875 0.140625,0.10546875 0.4101562,0 0.84375,-0.03515625 1.2539062,-0.03515625 0.2460938,0 0.8671875,0.03515625 1.125,0.03515625 0.058594,0 0.1757813,0 0.1757813,-0.19921875 0,-0.10546875 -0.1054688,-0.10546875 -0.234375,-0.10546875 -0.609375,0 -0.609375,-0.0703125 -0.6445313,-0.36328125 L 5.6950625,-6.8892891 c -0.011719,-0.1992187 -0.011719,-0.2460937 -0.1875,-0.2460937 -0.1640625,0 -0.1992187,0.070312 -0.2578125,0.1757812 z m 1.1953125,-1.4648437 1.96875,-3.28125 0.3164063,3.28125 z m 0,0" style="fill:currentcolor;fill-opacity:1;fill-rule:nonzero;stroke:none"/><path id="path84" d="m 9.8054141,-2.9371406 c 0,-0.1875 -0.011719,-0.1992188 -0.2109375,-0.1992188 -0.4453125,0.4335938 -1.078125,0.4453125 -1.359375,0.4453125 v 0.2460938 c 0.1640625,0 0.6210937,0 1.0078125,-0.1875 v 3.55078122 c 0,0.23437498 0,0.32812498 -0.6914063,0.32812498 H 8.2819766 v 0.2460938 c 0.1289062,-0.011719 0.984375,-0.023437 1.2421875,-0.023437 0.2109375,0 1.0898439,0.011719 1.2421879,0.023437 V 1.2464531 h -0.257813 c -0.7031249,0 -0.7031249,-0.09375 -0.7031249,-0.32812498 z m 0,0" style="fill:currentcolor;fill-opacity:1;fill-rule:nonzero;stroke:none"/></g><path id="path85" d="m -648.91509,426.30803 h 30.23669 v -30.2367 h -30.23669 z" style="fill:#cceffc;fill-opacity:1;fill-rule:nonzero;stroke:#000000;stroke-width:0.531333;stroke-linecap:butt;stroke-linejoin:miter;stroke-miterlimit:10;stroke-dasharray:none;stroke-opacity:1"/><g id="g87" aria-label="A&#10;2" transform="matrix(1.3333333,0,0,1.3333333,-641.7589,414.73099)"><path id="path86" d="m 1.781,-1.1472266 c -0.3984375,0.66796879 -0.78515625,0.80859379 -1.21875,0.84375004 -0.12890625,0 -0.2109375,0 -0.2109375,0.19921875 0,0.05859375 0.046875,0.10546875 0.12890625,0.10546875 0.26953125,0 0.57421875,-0.03515625 0.85546875,-0.03515625 0.328125,0 0.6796875,0.03515625 0.9960938,0.03515625 0.058594,0 0.1875,0 0.1875,-0.1875 0,-0.1171875 -0.09375,-0.1171875 -0.1640625,-0.1171875 -0.2226563,-0.0234375 -0.4570313,-0.10546875 -0.4570313,-0.3515625 0,-0.1171875 0.058594,-0.234375 0.1289063,-0.37500004 l 0.7617187,-1.265625 h 2.4960938 c 0.023437,0.1992188 0.1640625,1.55859379 0.1640625,1.66406254 0,0.29296875 -0.515625,0.328125 -0.7148438,0.328125 -0.140625,0 -0.2460937,0 -0.2460937,0.19921875 0,0.10546875 0.1289062,0.10546875 0.140625,0.10546875 0.4101562,0 0.84375,-0.03515625 1.2539062,-0.03515625 0.2460938,0 0.8671875,0.03515625 1.125,0.03515625 0.058594,0 0.1757813,0 0.1757813,-0.19921875 0,-0.10546875 -0.1054688,-0.10546875 -0.234375,-0.10546875 -0.609375,0 -0.609375,-0.0703125 -0.6445313,-0.36328125 L 5.6950625,-6.8894141 c -0.011719,-0.1992187 -0.011719,-0.2460937 -0.1875,-0.2460937 -0.1640625,0 -0.1992187,0.070312 -0.2578125,0.1757812 z m 1.1953125,-1.4648437 1.96875,-3.28125 0.3164063,3.28125 z m 0,0" style="fill:currentcolor;fill-opacity:1;fill-rule:nonzero;stroke:none"/><path id="path87" d="m 10.989008,0.22972656 h -0.234375 c -0.02344,0.15234375 -0.08203,0.5625 -0.175781,0.6328125 -0.05859,0.0351563 -0.5976567,0.0351563 -0.6914067,0.0351563 H 8.5983828 c 0.7382813,-0.64453125 0.984375,-0.84375 1.3945313,-1.171875 0.5156249,-0.41015625 0.9960939,-0.84374996 0.9960939,-1.49999996 0,-0.84375 -0.738281,-1.359375 -1.6289064,-1.359375 -0.8671875,0 -1.453125,0.609375 -1.453125,1.2421875 0,0.3632813 0.3046875,0.3984375 0.375,0.3984375 0.1640625,0 0.375,-0.1171875 0.375,-0.375 0,-0.1289062 -0.058594,-0.3632812 -0.421875,-0.3632812 0.2226562,-0.5039063 0.6914062,-0.65625 1.0195312,-0.65625 0.703125,0 1.0664062,0.5507812 1.0664062,1.1132812 0,0.609375 -0.4335937,1.08984371 -0.6562499,1.33593746 l -1.6875,1.66406254 c -0.070312,0.058594 -0.070312,0.070312 -0.070312,0.2695313 h 2.8828119 z m 0,0" style="fill:currentcolor;fill-opacity:1;fill-rule:nonzero;stroke:none"/></g><path id="path88" d="m -648.91509,471.13149 h 30.23669 V 440.8948 h -30.23669 z" style="fill:#cceffc;fill-opacity:1;fill-rule:nonzero;stroke:#000000;stroke-width:0.531333;stroke-linecap:butt;stroke-linejoin:miter;stroke-miterlimit:10;stroke-dasharray:none;stroke-opacity:1"/><g id="g90" aria-label="B&#10;1" transform="matrix(1.3333333,0,0,1.3333333,-641.8149,459.55365)"><path id="path89" d="m 1.5944844,-0.77399219 c -0.09375,0.38671875 -0.1171875,0.46875 -0.90234377,0.46875 -0.17578125,0 -0.26953125,0 -0.26953125,0.19921875 0,0.1054687525 0.0820313,0.1054687525 0.26953125,0.1054687525 H 4.2429219 c 1.5703125,0 2.7539062,-1.1718750125 2.7539062,-2.1562500125 0,-0.7148437 -0.5859375,-1.2890625 -1.546875,-1.3945312 1.03125,-0.1992188 2.0859375,-0.9375 2.0859375,-1.875 0,-0.7382813 -0.65625,-1.3828125 -1.8515625,-1.3828125 H 2.3327656 c -0.1875,0 -0.2929687,0 -0.2929687,0.1992187 0,0.1171875 0.09375,0.1171875 0.28125,0.1171875 0.023437,0 0.2109375,0 0.375,0.011719 0.1875,0.023437 0.2695312,0.035156 0.2695312,0.1640625 0,0.035156 -0.011719,0.070312 -0.035156,0.1875 z m 1.5,-2.87109371 0.6210937,-2.4726563 c 0.09375,-0.3515625 0.1054688,-0.375 0.5390625,-0.375 h 1.2890625 c 0.8671875,0 1.078125,0.5859375 1.078125,1.0195313 0,0.8789062 -0.8554687,1.828125 -2.0742187,1.828125 z m -0.4453125,3.33984371 c -0.140625,0 -0.1523438,0 -0.2226563,-0.0117188 -0.09375,-0.0117188 -0.1289062,-0.0234375 -0.1289062,-0.10546875 0,-0.0234375 0,-0.046875 0.058594,-0.22265625 L 3.0358906,-3.4224297 h 1.8867188 c 0.9609375,0 1.1484375,0.7265625 1.1484375,1.1601563 0,0.984375 -0.890625,1.95703121 -2.0625,1.95703121 z m 0,0" style="fill:currentcolor;fill-opacity:1;fill-rule:nonzero;stroke:none"/><path id="path90" d="m 9.8884297,-2.9361016 c 0,-0.1875 -0.011719,-0.1992187 -0.2109375,-0.1992187 -0.4453125,0.4335937 -1.078125,0.4453125 -1.359375,0.4453125 v 0.2460937 c 0.1640625,0 0.6210937,0 1.0078125,-0.1875 v 3.55078129 c 0,0.23437501 0,0.32812501 -0.6914063,0.32812501 H 8.3649922 v 0.2460937 c 0.1289062,-0.011719 0.984375,-0.023437 1.2421875,-0.023437 0.2109375,0 1.0898433,0.011719 1.2421873,0.023437 V 1.2474922 h -0.257812 c -0.7031253,0 -0.7031253,-0.09375 -0.7031253,-0.32812501 z m 0,0" style="fill:currentcolor;fill-opacity:1;fill-rule:nonzero;stroke:none"/></g><path id="path91" d="m -648.91509,539.69528 h 30.23669 v -30.2367 h -30.23669 z" style="fill:#cceffc;fill-opacity:1;fill-rule:nonzero;stroke:#000000;stroke-width:0.531333;stroke-linecap:butt;stroke-linejoin:miter;stroke-miterlimit:10;stroke-dasharray:none;stroke-opacity:1"/><g id="g93" aria-label="B&#10;2" transform="matrix(1.3333333,0,0,1.3333333,-641.8149,528.11632)"><path id="path92" d="m 1.5944844,-0.77411719 c -0.09375,0.38671875 -0.1171875,0.46875 -0.90234377,0.46875 -0.17578125,0 -0.26953125,0 -0.26953125,0.19921875 0,0.1054687525 0.0820313,0.1054687525 0.26953125,0.1054687525 H 4.2429219 c 1.5703125,0 2.7539062,-1.1718750125 2.7539062,-2.1562500125 0,-0.7148437 -0.5859375,-1.2890625 -1.546875,-1.3945312 1.03125,-0.1992188 2.0859375,-0.9375 2.0859375,-1.875 0,-0.7382813 -0.65625,-1.3828125 -1.8515625,-1.3828125 H 2.3327656 c -0.1875,0 -0.2929687,0 -0.2929687,0.1992187 0,0.1171875 0.09375,0.1171875 0.28125,0.1171875 0.023437,0 0.2109375,0 0.375,0.011719 0.1875,0.023437 0.2695312,0.035156 0.2695312,0.1640625 0,0.035156 -0.011719,0.070312 -0.035156,0.1875 z m 1.5,-2.87109371 0.6210937,-2.4726563 c 0.09375,-0.3515625 0.1054688,-0.375 0.5390625,-0.375 h 1.2890625 c 0.8671875,0 1.078125,0.5859375 1.078125,1.0195313 0,0.8789062 -0.8554687,1.828125 -2.0742187,1.828125 z m -0.4453125,3.33984371 c -0.140625,0 -0.1523438,0 -0.2226563,-0.0117188 -0.09375,-0.0117188 -0.1289062,-0.0234375 -0.1289062,-0.10546875 0,-0.0234375 0,-0.046875 0.058594,-0.22265625 L 3.0358906,-3.4225547 h 1.8867188 c 0.9609375,0 1.1484375,0.7265625 1.1484375,1.1601563 0,0.984375 -0.890625,1.95703121 -2.0625,1.95703121 z m 0,0" style="fill:currentcolor;fill-opacity:1;fill-rule:nonzero;stroke:none"/><path id="path93" d="m 11.072023,0.23076563 h -0.234375 c -0.02344,0.15234375 -0.08203,0.5625 -0.175781,0.6328125 -0.05859,0.0351563 -0.597656,0.0351563 -0.6914061,0.0351563 H 8.6813984 c 0.7382813,-0.64453125 0.984375,-0.84375 1.3945316,-1.171875 0.515625,-0.41015625 0.996093,-0.84374993 0.996093,-1.49999993 0,-0.8437501 -0.738281,-1.3593751 -1.6289058,-1.3593751 -0.8671875,0 -1.453125,0.609375 -1.453125,1.2421876 0,0.3632812 0.3046875,0.3984375 0.375,0.3984375 0.1640625,0 0.375,-0.1171875 0.375,-0.375 0,-0.1289063 -0.058594,-0.3632814 -0.421875,-0.3632814 0.2226562,-0.5039062 0.6914062,-0.65625 1.0195312,-0.65625 0.7031246,0 1.0664066,0.5507813 1.0664066,1.1132813 0,0.609375 -0.4335941,1.08984378 -0.6562503,1.33593753 l -1.6875,1.66406247 c -0.070312,0.058594 -0.070312,0.070312 -0.070312,0.2695312 h 2.8828133 z m 0,0" style="fill:currentcolor;fill-opacity:1;fill-rule:nonzero;stroke:none"/></g><path id="path94" d="m -524.18906,380.42165 c 0,-8.34973 -6.76859,-15.11834 -15.11835,-15.11834 -8.34973,0 -15.11835,6.76861 -15.11835,15.11834 0,8.34974 6.76862,15.11835 15.11835,15.11835 8.34976,0 15.11835,-6.76861 15.11835,-15.11835 z" style="fill:#99ff99;fill-opacity:1;fill-rule:nonzero;stroke:#000000;stroke-width:0.531333;stroke-linecap:butt;stroke-linejoin:miter;stroke-miterlimit:10;stroke-dasharray:none;stroke-opacity:1"/><path id="path95" d="m -534.90767,375.37714 c 0,-0.70313 0.0469,-0.89063 1.4375,-0.89063 h 0.375 v -0.5625 h -12.45312 v 0.5625 h 0.39062 c 1.375,0 1.42188,0.1875 1.42188,0.89063 v 10.125 c 0,0.70312 -0.0469,0.90625 -1.42188,0.90625 h -0.39062 v 0.54687 c 0.46875,-0.0312 2.03125,-0.0312 2.57812,-0.0312 0.57813,0 2.15625,0 2.60938,0.0312 v -0.54687 h -0.39063 c -1.375,0 -1.42187,-0.20313 -1.42187,-0.90625 v -11.01563 h 5.71875 v 11.01563 c 0,0.70312 -0.0625,0.90625 -1.4375,0.90625 h -0.39063 v 0.54687 c 0.46875,-0.0312 2.03125,-0.0312 2.59375,-0.0312 0.5625,0 2.14063,0 2.59375,0.0312 v -0.54687 h -0.375 c -1.39062,0 -1.4375,-0.20313 -1.4375,-0.90625 z m 0,0" style="fill:currentcolor;fill-opacity:1;fill-rule:nonzero;stroke:none;stroke-width:1.33333" aria-label="Π"/><path id="path96" d="m -524.18906,486.78117 c 0,-8.34973 -6.76859,-15.11835 -15.11835,-15.11835 -8.34973,0 -15.11835,6.76862 -15.11835,15.11835 0,8.34973 6.76862,15.11835 15.11835,15.11835 8.34976,0 15.11835,-6.76862 15.11835,-15.11835 z" style="fill:#99ff99;fill-opacity:1;fill-rule:nonzero;stroke:#000000;stroke-width:0.531333;stroke-linecap:butt;stroke-linejoin:miter;stroke-miterlimit:10;stroke-dasharray:none;stroke-opacity:1"/><path id="path97" d="m -534.90767,481.73651 c 0,-0.70312 0.0469,-0.89062 1.4375,-0.89062 h 0.375 v -0.5625 h -12.45312 v 0.5625 h 0.39062 c 1.375,0 1.42188,0.1875 1.42188,0.89062 v 10.125 c 0,0.70313 -0.0469,0.90625 -1.42188,0.90625 h -0.39062 v 0.54688 c 0.46875,-0.0312 2.03125,-0.0312 2.57812,-0.0312 0.57813,0 2.15625,0 2.60938,0.0312 v -0.54688 h -0.39063 c -1.375,0 -1.42187,-0.20312 -1.42187,-0.90625 v -11.01562 h 5.71875 v 11.01562 c 0,0.70313 -0.0625,0.90625 -1.4375,0.90625 h -0.39063 v 0.54688 c 0.46875,-0.0312 2.03125,-0.0312 2.59375,-0.0312 0.5625,0 2.14063,0 2.59375,0.0312 v -0.54688 h -0.375 c -1.39062,0 -1.4375,-0.20312 -1.4375,-0.90625 z m 0,0" style="fill:currentcolor;fill-opacity:1;fill-rule:nonzero;stroke:none;stroke-width:1.33333" aria-label="Π"/><path id="path98" d="m -429.69968,380.42165 c 0,-8.34973 -6.7686,-15.11834 -15.11835,-15.11834 -8.34973,0 -15.11834,6.76861 -15.11834,15.11834 0,8.34974 6.76861,15.11835 15.11834,15.11835 8.34975,0 15.11835,-6.76861 15.11835,-15.11835 z" style="fill:#fffa99;fill-opacity:1;fill-rule:nonzero;stroke:#000000;stroke-width:0.531333;stroke-linecap:butt;stroke-linejoin:miter;stroke-miterlimit:10;stroke-dasharray:none;stroke-opacity:1"/><path id="path99" d="m -447.51314,374.15839 c -0.17187,-0.25 -0.20312,-0.26563 -0.625,-0.26563 h -2.92187 v 0.5625 c 0.82812,0 1.29687,0 1.8125,0.125 v 10.35938 c 0,0.5625 0,1.46875 -1.8125,1.46875 v 0.54687 c 0.5,-0.0312 1.51562,-0.0312 2.04687,-0.0312 0.53125,0 1.54688,0 2.04688,0.0312 v -0.54687 c -1.8125,0 -1.8125,-0.90625 -1.8125,-1.46875 v -10.04688 c 0.15625,0.14063 0.15625,0.1875 0.32812,0.42188 l 7.45313,11.35937 c 0.1875,0.26563 0.20312,0.28125 0.34375,0.28125 0.17187,0 0.21875,-0.0781 0.23437,-0.10937 v -10.9375 c 0,-0.5625 0,-1.45313 1.8125,-1.45313 v -0.5625 c -0.5,0.0312 -1.51562,0.0312 -2.04687,0.0312 -0.53125,0 -1.54688,0 -2.04688,-0.0312 v 0.5625 c 1.8125,0 1.8125,0.89063 1.8125,1.45313 v 8.34375 z m 0,0" style="fill:currentcolor;fill-opacity:1;fill-rule:nonzero;stroke:none;stroke-width:1.33333" aria-label="N"/><path id="path100" d="m -429.69968,486.78117 c 0,-8.34973 -6.7686,-15.11835 -15.11835,-15.11835 -8.34973,0 -15.11834,6.76862 -15.11834,15.11835 0,8.34973 6.76861,15.11835 15.11834,15.11835 8.34975,0 15.11835,-6.76862 15.11835,-15.11835 z" style="fill:#fffa99;fill-opacity:1;fill-rule:nonzero;stroke:#000000;stroke-width:0.531333;stroke-linecap:butt;stroke-linejoin:miter;stroke-miterlimit:10;stroke-dasharray:none;stroke-opacity:1"/><path id="path101" d="m -447.51314,480.51776 c -0.17187,-0.25 -0.20312,-0.26562 -0.625,-0.26562 h -2.92187 v 0.5625 c 0.82812,0 1.29687,0 1.8125,0.125 v 10.35937 c 0,0.5625 0,1.46875 -1.8125,1.46875 v 0.54688 c 0.5,-0.0312 1.51562,-0.0312 2.04687,-0.0312 0.53125,0 1.54688,0 2.04688,0.0312 v -0.54688 c -1.8125,0 -1.8125,-0.90625 -1.8125,-1.46875 v -10.04687 c 0.15625,0.14062 0.15625,0.1875 0.32812,0.42187 l 7.45313,11.35938 c 0.1875,0.26562 0.20312,0.28125 0.34375,0.28125 0.17187,0 0.21875,-0.0781 0.23437,-0.10938 v -10.9375 c 0,-0.5625 0,-1.45312 1.8125,-1.45312 v -0.5625 c -0.5,0.0312 -1.51562,0.0312 -2.04687,0.0312 -0.53125,0 -1.54688,0 -2.04688,-0.0312 v 0.5625 c 1.8125,0 1.8125,0.89062 1.8125,1.45312 v 8.34375 z m 0,0" style="fill:currentcolor;fill-opacity:1;fill-rule:nonzero;stroke:none;stroke-width:1.33333" aria-label="N"/><path id="path102" d="m -365.44701,395.54 h 30.23669 v -30.23669 h -30.23669 z" style="fill:#ffcc99;fill-opacity:1;fill-rule:nonzero;stroke:#000000;stroke-width:0.531333;stroke-linecap:butt;stroke-linejoin:miter;stroke-miterlimit:10;stroke-dasharray:none;stroke-opacity:1"/><path id="path103" d="m -340.19673,356.06854 c 0.0156,-0.0469 0.0312,-0.125 0.0312,-0.20312 0,-0.14063 -0.10938,-0.34375 -0.35938,-0.34375 -0.15625,0 -0.375,0.0937 -0.46875,0.32812 -0.0156,0.0469 -0.14062,0.53125 -0.20312,0.79688 l -0.59375,2.39062 c -0.10938,0.34375 -0.10938,0.375 -0.125,0.48438 -0.0156,0.0469 -0.51563,0.98437 -1.375,0.98437 -0.75,0 -0.75,-0.75 -0.75,-0.96875 0,-0.54687 0.15625,-1.125 0.67187,-2.46875 0.0937,-0.28125 0.17188,-0.4375 0.17188,-0.67187 0,-0.57813 -0.4375,-1 -1.03125,-1 -1.14063,0 -1.625,1.70312 -1.625,1.84375 0,0.10937 0.0937,0.14062 0.17187,0.14062 0.125,0 0.14063,-0.0781 0.1875,-0.23437 0.25,-0.875 0.73438,-1.45313 1.23438,-1.45313 0.28125,0 0.28125,0.23438 0.28125,0.39063 0,0.20312 -0.0469,0.42187 -0.15625,0.70312 -0.5625,1.48438 -0.71875,1.98438 -0.71875,2.5625 0,1.32813 1.07812,1.45313 1.53125,1.45313 0.57812,0 1,-0.29688 1.21875,-0.51563 -0.15625,0.60938 -0.29688,1.14063 -0.76563,1.73438 -0.35937,0.48437 -0.82812,0.8125 -1.35937,0.8125 -0.32813,0 -0.71875,-0.125 -0.89063,-0.45313 0.625,0 0.71875,-0.53125 0.71875,-0.65625 0,-0.26562 -0.1875,-0.42187 -0.45312,-0.42187 -0.29688,0 -0.67188,0.21875 -0.67188,0.78125 0,0.60937 0.54688,1.04687 1.29688,1.04687 1.21875,0 2.53125,-1.04687 2.875,-2.4375 z m 0,0" style="fill:currentcolor;fill-opacity:1;fill-rule:nonzero;stroke:none;stroke-width:1.33333" aria-label="y"/><path id="path104" d="m -355.56002,355.51776 c -0.4375,0.0781 -0.5625,0.46875 -0.5625,0.64063 0,0.23437 0.15625,0.4375 0.45313,0.4375 0.34375,0 0.67187,-0.29688 0.67187,-0.70313 0,-0.5625 -0.60937,-0.82812 -1.17187,-0.82812 -0.71875,0 -1.125,0.625 -1.26563,0.875 -0.23437,-0.57813 -0.76562,-0.875 -1.32812,-0.875 -1.28125,0 -1.98438,1.53125 -1.98438,1.84375 0,0.10937 0.0937,0.14062 0.17188,0.14062 0.10937,0 0.14062,-0.0625 0.17187,-0.14062 0.375,-1.17188 1.15625,-1.54688 1.60938,-1.54688 0.34375,0 0.65625,0.23438 0.65625,0.78125 0,0.4375 -0.51563,2.34375 -0.67188,2.92188 -0.0937,0.375 -0.45312,1.10937 -1.10937,1.10937 -0.23438,0 -0.48438,-0.0781 -0.60938,-0.15625 0.32813,-0.0469 0.5625,-0.32812 0.5625,-0.64062 0,-0.29688 -0.21875,-0.4375 -0.45312,-0.4375 -0.34375,0 -0.65625,0.3125 -0.65625,0.71875 0,0.57812 0.64062,0.8125 1.14062,0.8125 0.70313,0 1.10938,-0.5625 1.28125,-0.89063 0.29688,0.79688 1.01563,0.89063 1.32813,0.89063 1.29687,0 1.96875,-1.54688 1.96875,-1.82813 0,-0.0625 -0.0312,-0.15625 -0.15625,-0.15625 -0.125,0 -0.14063,0.0469 -0.20313,0.23438 -0.25,0.85937 -0.95312,1.45312 -1.57812,1.45312 -0.34375,0 -0.65625,-0.20312 -0.65625,-0.78125 0,-0.26562 0.15625,-0.92187 0.26562,-1.375 0.0469,-0.21875 0.375,-1.51562 0.39063,-1.59375 0.15625,-0.42187 0.51562,-1.0625 1.125,-1.0625 0.20312,0 0.4375,0.0312 0.60937,0.15625 z m 0,0" style="fill:currentcolor;fill-opacity:1;fill-rule:nonzero;stroke:none;stroke-width:1.33333" aria-label="x"/><path id="path105" d="m -365.44701,501.89952 h 30.23669 v -30.2367 h -30.23669 z" style="fill:#ffcc99;fill-opacity:1;fill-rule:nonzero;stroke:#000000;stroke-width:0.531333;stroke-linecap:butt;stroke-linejoin:miter;stroke-miterlimit:10;stroke-dasharray:none;stroke-opacity:1"/><path id="path106" d="m -340.19673,510.04901 c 0.0156,-0.0469 0.0312,-0.125 0.0312,-0.20312 0,-0.14063 -0.10938,-0.34375 -0.35938,-0.34375 -0.15625,0 -0.375,0.0937 -0.46875,0.32812 -0.0156,0.0469 -0.14062,0.53125 -0.20312,0.79688 l -0.59375,2.39062 c -0.10938,0.34375 -0.10938,0.375 -0.125,0.48438 -0.0156,0.0469 -0.51563,0.98437 -1.375,0.98437 -0.75,0 -0.75,-0.75 -0.75,-0.96875 0,-0.54687 0.15625,-1.125 0.67187,-2.46875 0.0937,-0.28125 0.17188,-0.4375 0.17188,-0.67187 0,-0.57813 -0.4375,-1 -1.03125,-1 -1.14063,0 -1.625,1.70312 -1.625,1.84375 0,0.10937 0.0937,0.14062 0.17187,0.14062 0.125,0 0.14063,-0.0781 0.1875,-0.23437 0.25,-0.875 0.73438,-1.45313 1.23438,-1.45313 0.28125,0 0.28125,0.23438 0.28125,0.39063 0,0.20312 -0.0469,0.42187 -0.15625,0.70312 -0.5625,1.48438 -0.71875,1.98438 -0.71875,2.5625 0,1.32813 1.07812,1.45313 1.53125,1.45313 0.57812,0 1,-0.29688 1.21875,-0.51563 -0.15625,0.60938 -0.29688,1.14063 -0.76563,1.73438 -0.35937,0.48437 -0.82812,0.8125 -1.35937,0.8125 -0.32813,0 -0.71875,-0.125 -0.89063,-0.45313 0.625,0 0.71875,-0.53125 0.71875,-0.65625 0,-0.26562 -0.1875,-0.42187 -0.45312,-0.42187 -0.29688,0 -0.67188,0.21875 -0.67188,0.78125 0,0.60937 0.54688,1.04687 1.29688,1.04687 1.21875,0 2.53125,-1.04687 2.875,-2.4375 z m 0,0" style="fill:currentcolor;fill-opacity:1;fill-rule:nonzero;stroke:none;stroke-width:1.33333" aria-label="y"/><path id="path107" d="m -355.56002,509.83026 c -0.4375,0.0781 -0.5625,0.46875 -0.5625,0.64063 0,0.23437 0.15625,0.4375 0.45313,0.4375 0.34375,0 0.67187,-0.29688 0.67187,-0.70313 0,-0.5625 -0.60937,-0.82812 -1.17187,-0.82812 -0.71875,0 -1.125,0.625 -1.26563,0.875 -0.23437,-0.57813 -0.76562,-0.875 -1.32812,-0.875 -1.28125,0 -1.98438,1.53125 -1.98438,1.84375 0,0.10937 0.0937,0.14062 0.17188,0.14062 0.10937,0 0.14062,-0.0625 0.17187,-0.14062 0.375,-1.17188 1.15625,-1.54688 1.60938,-1.54688 0.34375,0 0.65625,0.23438 0.65625,0.78125 0,0.4375 -0.51563,2.34375 -0.67188,2.92188 -0.0937,0.375 -0.45312,1.10937 -1.10937,1.10937 -0.23438,0 -0.48438,-0.0781 -0.60938,-0.15625 0.32813,-0.0469 0.5625,-0.32812 0.5625,-0.64062 0,-0.29688 -0.21875,-0.4375 -0.45312,-0.4375 -0.34375,0 -0.65625,0.3125 -0.65625,0.71875 0,0.57812 0.64062,0.8125 1.14062,0.8125 0.70313,0 1.10938,-0.5625 1.28125,-0.89063 0.29688,0.79688 1.01563,0.89063 1.32813,0.89063 1.29687,0 1.96875,-1.54688 1.96875,-1.82813 0,-0.0625 -0.0312,-0.15625 -0.15625,-0.15625 -0.125,0 -0.14063,0.0469 -0.20313,0.23438 -0.25,0.85937 -0.95312,1.45312 -1.57812,1.45312 -0.34375,0 -0.65625,-0.20312 -0.65625,-0.78125 0,-0.26562 0.15625,-0.92187 0.26562,-1.375 0.0469,-0.21875 0.375,-1.51562 0.39063,-1.59375 0.15625,-0.42187 0.51562,-1.0625 1.125,-1.0625 0.20312,0 0.4375,0.0312 0.60937,0.15625 z m 0,0" style="fill:currentcolor;fill-opacity:1;fill-rule:nonzero;stroke:none;stroke-width:1.33333" aria-label="x"/><path id="path108" d="m -240.72095,437.11525 c 0,-8.34973 -6.76861,-15.11834 -15.11835,-15.11834 -8.34973,0 -15.11834,6.76861 -15.11834,15.11834 0,8.34974 6.76861,15.11835 15.11834,15.11835 8.34974,0 15.11835,-6.76861 15.11835,-15.11835 z" style="fill:#cccccc;fill-opacity:1;fill-rule:nonzero;stroke:#000000;stroke-width:0.531333;stroke-linecap:butt;stroke-linejoin:miter;stroke-miterlimit:10;stroke-dasharray:none;stroke-opacity:1"/><path id="path109" d="m -255.84126,437.43182 c 0.15625,-0.1875 0.20312,-0.21875 0.20312,-0.32812 0,-0.0312 0,-0.0781 -0.125,-0.21875 l -3.85937,-5.73438 h 4.51562 c 3.20313,0 4.1875,0.6875 4.54688,3.70313 h 0.42187 l -0.5,-4.26563 h -10.45312 c -0.46875,0 -0.48438,0 -0.48438,0.4375 l 4.65625,6.89063 -4.4375,5.23437 c -0.15625,0.17188 -0.20312,0.23438 -0.20312,0.3125 0,0.1875 0.15625,0.1875 0.46875,0.1875 h 10.45312 l 0.5,-4.45312 h -0.42187 c -0.34375,3.15625 -1.54688,3.70312 -4.60938,3.70312 h -5.29687 z m 0,0" style="fill:currentcolor;fill-opacity:1;fill-rule:nonzero;stroke:none;stroke-width:1.33333" aria-label="Σ"/><path id="path110" d="m -650.1772,297.42792 h -0.625 c -0.10938,0.92187 -0.34375,3.01562 -2.71875,3.01562 h -1.35938 v -7.85937 h 1.78125 v -0.625 c -0.57812,0.0312 -2.03125,0.0312 -2.67187,0.0312 -0.59375,0 -1.9375,0 -2.4375,-0.0312 v 0.625 h 1.4375 v 7.85937 h -1.4375 v 0.625 h 7.60937 z m 5.60937,2.625 c 0,0.40625 0,1.01562 1.375,1.01562 h 0.64063 c 0.26562,0 0.42187,0 0.42187,-0.3125 0,-0.3125 -0.17187,-0.3125 -0.34375,-0.3125 -0.8125,-0.0156 -0.8125,-0.1875 -0.8125,-0.48437 v -2.85938 c 0,-1.1875 -0.9375,-2.04687 -2.92187,-2.04687 -0.75,0 -2.375,0.0469 -2.375,1.21875 0,0.59375 0.46875,0.84375 0.82812,0.84375 0.40625,0 0.82813,-0.28125 0.82813,-0.84375 0,-0.39063 -0.25,-0.625 -0.28125,-0.65625 0.375,-0.0781 0.79687,-0.0781 0.95312,-0.0781 1,0 1.45313,0.54688 1.45313,1.5625 v 0.45313 c -0.9375,0.0312 -4.3125,0.15625 -4.3125,2.07812 0,1.28125 1.65625,1.51563 2.5625,1.51563 1.0625,0 1.6875,-0.54688 1.98437,-1.09375 z m -0.23437,-2.09375 v 1.26562 c 0,1.26563 -1.21875,1.4375 -1.54688,1.4375 -0.67187,0 -1.20312,-0.45312 -1.20312,-1.04687 0,-1.42188 2.09375,-1.60938 2.75,-1.65625 z m 8.98828,-1.89063 c 0.0937,-0.1875 0.14062,-0.26562 0.98437,-0.26562 v -0.625 c -0.3125,0.0156 -0.71875,0.0312 -1.04687,0.0312 -0.32813,0 -0.9375,-0.0312 -1.20313,-0.0312 v 0.625 c 0.0156,0 0.60938,0 0.60938,0.15625 0,0.0156 -0.0469,0.14062 -0.0625,0.15625 l -1.53126,3.26562 -1.67187,-3.57812 h 0.70313 v -0.625 c -0.4375,0.0156 -1.625,0.0312 -1.64063,0.0312 -0.375,0 -0.96875,-0.0312 -1.51563,-0.0312 v 0.625 h 0.85938 l 2.46874,5.26562 -0.29687,0.64063 c -0.29688,0.64062 -0.71875,1.53125 -1.65625,1.53125 -0.1875,0 -0.21875,0 -0.32813,-0.0469 0.125,-0.0469 0.42188,-0.23437 0.42188,-0.70312 0,-0.4375 -0.3125,-0.75 -0.76563,-0.75 -0.375,0 -0.75,0.25 -0.75,0.76562 0,0.67188 0.625,1.21875 1.42188,1.21875 1.01562,0 1.78125,-0.82812 2.14062,-1.57812 z m 7.05859,2.10938 c 0.28125,0 0.42188,0 0.42188,-0.35938 0,-0.42187 -0.0781,-1.39062 -0.75,-2.04687 -0.48438,-0.48438 -1.1875,-0.71875 -2.10938,-0.71875 -2.125,0 -3.28125,1.35937 -3.28125,3.03125 0,1.78125 1.32813,3.0625 3.46875,3.0625 2.09375,0 2.67188,-1.40625 2.67188,-1.625 0,-0.25 -0.25,-0.25 -0.3125,-0.25 -0.23438,0 -0.26563,0.0625 -0.34375,0.28125 -0.28125,0.64062 -1.03125,1.0625 -1.89063,1.0625 -1.875,0 -1.89062,-1.76563 -1.89062,-2.4375 z m -4.01562,-0.4375 c 0.0312,-0.53125 0.0469,-1.07813 0.3125,-1.51563 0.35937,-0.53125 0.89062,-0.6875 1.26562,-0.6875 1.5625,0 1.57813,1.73438 1.59375,2.20313 z m 7.57812,-1.14063 v -1.51562 l -2.21875,0.10937 v 0.625 c 0.82813,0 0.92188,0 0.92188,0.51563 v 4.10937 h -0.92188 v 0.625 c 0.46875,-0.0156 1.0625,-0.0469 1.6875,-0.0469 0.5,0 1.34375,0 1.82813,0.0469 v -0.625 h -1.15625 v -2.32812 c 0,-0.92188 0.32812,-2.54688 1.65625,-2.54688 -0.0156,0.0156 -0.25,0.23438 -0.25,0.60938 0,0.54687 0.42187,0.8125 0.8125,0.8125 0.39062,0 0.8125,-0.28125 0.8125,-0.8125 0,-0.70313 -0.71875,-1.09375 -1.40625,-1.09375 -0.9375,0 -1.46875,0.67187 -1.76563,1.51562 z m 13.37891,-3.8125 c 0,-0.28125 0,-0.42187 -0.34375,-0.42187 -0.15625,0 -0.17188,0 -0.29688,0.0937 -1.01562,0.76562 -2.39062,0.76562 -2.67187,0.76562 h -0.26563 v 0.625 h 0.26563 c 0.21875,0 0.95312,-0.0156 1.73437,-0.26562 v 6.85937 h -1.84375 v 0.625 c 0.57813,-0.0469 1.98438,-0.0469 2.64063,-0.0469 0.64062,0 2.0625,0 2.64062,0.0469 v -0.625 h -1.85937 z m 0,0" style="fill:currentcolor;fill-opacity:1;fill-rule:nonzero;stroke:none;stroke-width:1.33333" aria-label="Layer1"/><path id="path111" d="m -555.68892,335.22479 h -0.625 c -0.10938,0.92188 -0.34375,3.01563 -2.71875,3.01563 h -1.35938 v -7.85938 h 1.78125 v -0.625 c -0.57812,0.0312 -2.03125,0.0312 -2.67187,0.0312 -0.59375,0 -1.9375,0 -2.4375,-0.0312 v 0.625 h 1.4375 v 7.85938 h -1.4375 v 0.625 h 7.60937 z m 5.60937,2.625 c 0,0.40625 0,1.01563 1.375,1.01563 h 0.64063 c 0.26562,0 0.42187,0 0.42187,-0.3125 0,-0.3125 -0.17187,-0.3125 -0.34375,-0.3125 -0.8125,-0.0156 -0.8125,-0.1875 -0.8125,-0.48438 v -2.85937 c 0,-1.1875 -0.9375,-2.04688 -2.92187,-2.04688 -0.75,0 -2.375,0.0469 -2.375,1.21875 0,0.59375 0.46875,0.84375 0.82812,0.84375 0.40625,0 0.82813,-0.28125 0.82813,-0.84375 0,-0.39062 -0.25,-0.625 -0.28125,-0.65625 0.375,-0.0781 0.79687,-0.0781 0.95312,-0.0781 1,0 1.45313,0.54687 1.45313,1.5625 v 0.45312 c -0.9375,0.0312 -4.3125,0.15625 -4.3125,2.07813 0,1.28125 1.65625,1.51562 2.5625,1.51562 1.0625,0 1.6875,-0.54687 1.98437,-1.09375 z m -0.23437,-2.09375 v 1.26563 c 0,1.26562 -1.21875,1.4375 -1.54688,1.4375 -0.67187,0 -1.20312,-0.45313 -1.20312,-1.04688 0,-1.42187 2.09375,-1.60937 2.75,-1.65625 z m 8.98828,-1.89062 c 0.0937,-0.1875 0.14062,-0.26563 0.98437,-0.26563 v -0.625 c -0.3125,0.0156 -0.71875,0.0312 -1.04687,0.0312 -0.32813,0 -0.9375,-0.0312 -1.20313,-0.0312 v 0.625 c 0.0156,0 0.60938,0 0.60938,0.15625 0,0.0156 -0.0469,0.14063 -0.0625,0.15625 l -1.53125,3.26563 -1.67187,-3.57813 h 0.70312 v -0.625 c -0.4375,0.0156 -1.625,0.0312 -1.64062,0.0312 -0.375,0 -0.96875,-0.0312 -1.51563,-0.0312 v 0.625 h 0.85938 l 2.46874,5.26563 -0.29687,0.64062 c -0.29688,0.64063 -0.71875,1.53125 -1.65625,1.53125 -0.1875,0 -0.21875,0 -0.32813,-0.0469 0.125,-0.0469 0.42188,-0.23438 0.42188,-0.70313 0,-0.4375 -0.3125,-0.75 -0.76563,-0.75 -0.375,0 -0.75,0.25 -0.75,0.76563 0,0.67187 0.625,1.21875 1.42188,1.21875 1.01562,0 1.78125,-0.82813 2.14062,-1.57813 z m 7.05468,2.10937 c 0.28125,0 0.42188,0 0.42188,-0.35937 0,-0.42188 -0.0781,-1.39063 -0.75,-2.04688 -0.48438,-0.48437 -1.1875,-0.71875 -2.10938,-0.71875 -2.125,0 -3.28125,1.35938 -3.28125,3.03125 0,1.78125 1.32813,3.0625 3.46875,3.0625 2.09375,0 2.67188,-1.40625 2.67188,-1.625 0,-0.25 -0.25,-0.25 -0.3125,-0.25 -0.23438,0 -0.26563,0.0625 -0.34375,0.28125 -0.28125,0.64063 -1.03125,1.0625 -1.89063,1.0625 -1.875,0 -1.89062,-1.76562 -1.89062,-2.4375 z m -4.01562,-0.4375 c 0.0312,-0.53125 0.0469,-1.07812 0.3125,-1.51562 0.35937,-0.53125 0.89062,-0.6875 1.26562,-0.6875 1.5625,0 1.57813,1.73437 1.59375,2.20312 z m 7.58203,-1.14062 v -1.51563 l -2.21875,0.10938 v 0.625 c 0.82813,0 0.92187,0 0.92187,0.51562 v 4.10938 h -0.92187 v 0.625 c 0.46875,-0.0156 1.0625,-0.0469 1.6875,-0.0469 0.5,0 1.34375,0 1.82813,0.0469 v -0.625 h -1.15626 v -2.32813 c 0,-0.92187 0.32813,-2.54687 1.65626,-2.54687 -0.0156,0.0156 -0.25,0.23437 -0.25,0.60937 0,0.54688 0.42187,0.8125 0.8125,0.8125 0.39062,0 0.8125,-0.28125 0.8125,-0.8125 0,-0.70312 -0.71876,-1.09375 -1.40626,-1.09375 -0.9375,0 -1.46874,0.67188 -1.76562,1.51563 z m 15.53516,1.51562 h -0.60938 c -0.0469,0.26563 -0.17187,1.125 -0.35937,1.21875 -0.14063,0.0781 -1.14063,0.0781 -1.34375,0.0781 h -1.95313 c 0.625,-0.51563 1.3125,-1.09375 1.90625,-1.53125 1.51563,-1.10938 2.35938,-1.73438 2.35938,-3 0,-1.53125 -1.375,-2.51563 -3.25,-2.51563 -1.60938,0 -2.85938,0.82813 -2.85938,2.01563 0,0.79687 0.64063,0.98437 0.96875,0.98437 0.42188,0 0.95313,-0.28125 0.95313,-0.95312 0,-0.6875 -0.5625,-0.90625 -0.76563,-0.95313 0.39063,-0.3125 0.89063,-0.46875 1.375,-0.46875 1.14063,0 1.75,0.90625 1.75,1.90625 0,0.90625 -0.5,1.8125 -1.4375,2.76563 l -2.65625,2.71875 c -0.1875,0.15625 -0.1875,0.1875 -0.1875,0.45312 v 0.23438 h 5.70313 z m 0,0" style="fill:currentcolor;fill-opacity:1;fill-rule:nonzero;stroke:none;stroke-width:1.33333" aria-label="Layer2"/><path id="path112" d="m -461.20064,335.22479 h -0.625 c -0.10938,0.92188 -0.34375,3.01563 -2.71875,3.01563 h -1.35938 v -7.85938 h 1.78125 v -0.625 c -0.57812,0.0312 -2.03125,0.0312 -2.67187,0.0312 -0.59375,0 -1.9375,0 -2.4375,-0.0312 v 0.625 h 1.4375 v 7.85938 h -1.4375 v 0.625 h 7.60937 z m 5.60937,2.625 c 0,0.40625 0,1.01563 1.375,1.01563 h 0.64063 c 0.26562,0 0.42187,0 0.42187,-0.3125 0,-0.3125 -0.17187,-0.3125 -0.34375,-0.3125 -0.8125,-0.0156 -0.8125,-0.1875 -0.8125,-0.48438 v -2.85937 c 0,-1.1875 -0.9375,-2.04688 -2.92187,-2.04688 -0.75,0 -2.375,0.0469 -2.375,1.21875 0,0.59375 0.46875,0.84375 0.82812,0.84375 0.40625,0 0.82813,-0.28125 0.82813,-0.84375 0,-0.39062 -0.25,-0.625 -0.28125,-0.65625 0.375,-0.0781 0.79687,-0.0781 0.95312,-0.0781 1,0 1.45313,0.54687 1.45313,1.5625 v 0.45312 c -0.9375,0.0312 -4.3125,0.15625 -4.3125,2.07813 0,1.28125 1.65625,1.51562 2.5625,1.51562 1.0625,0 1.6875,-0.54687 1.98437,-1.09375 z m -0.23437,-2.09375 v 1.26563 c 0,1.26562 -1.21875,1.4375 -1.54688,1.4375 -0.67187,0 -1.20312,-0.45313 -1.20312,-1.04688 0,-1.42187 2.09375,-1.60937 2.75,-1.65625 z m 8.98437,-1.89062 c 0.0937,-0.1875 0.14063,-0.26563 0.98438,-0.26563 v -0.625 c -0.3125,0.0156 -0.71875,0.0312 -1.04688,0.0312 -0.32812,0 -0.9375,-0.0312 -1.20312,-0.0312 v 0.625 c 0.0156,0 0.60937,0 0.60937,0.15625 0,0.0156 -0.0469,0.14063 -0.0625,0.15625 l -1.53125,3.26563 -1.67188,-3.57813 h 0.70313 v -0.625 c -0.4375,0.0156 -1.625,0.0312 -1.64063,0.0312 -0.375,0 -0.96875,-0.0312 -1.51562,-0.0312 v 0.625 h 0.85937 l 2.46875,5.26563 -0.29688,0.64062 c -0.29687,0.64063 -0.71875,1.53125 -1.65625,1.53125 -0.1875,0 -0.21875,0 -0.32812,-0.0469 0.125,-0.0469 0.42187,-0.23438 0.42187,-0.70313 0,-0.4375 -0.3125,-0.75 -0.76562,-0.75 -0.375,0 -0.75,0.25 -0.75,0.76563 0,0.67187 0.625,1.21875 1.42187,1.21875 1.01563,0 1.78125,-0.82813 2.14063,-1.57813 z m 7.0586,2.10937 c 0.28124,0 0.42187,0 0.42187,-0.35937 0,-0.42188 -0.0781,-1.39063 -0.75,-2.04688 -0.48437,-0.48437 -1.1875,-0.71875 -2.10937,-0.71875 -2.125,0 -3.28125,1.35938 -3.28125,3.03125 0,1.78125 1.32812,3.0625 3.46875,3.0625 2.09374,0 2.67187,-1.40625 2.67187,-1.625 0,-0.25 -0.25,-0.25 -0.3125,-0.25 -0.23437,0 -0.26563,0.0625 -0.34375,0.28125 -0.28125,0.64063 -1.03125,1.0625 -1.89062,1.0625 -1.875,0 -1.89063,-1.76562 -1.89063,-2.4375 z m -4.01563,-0.4375 c 0.0312,-0.53125 0.0469,-1.07812 0.3125,-1.51562 0.35938,-0.53125 0.89063,-0.6875 1.26563,-0.6875 1.5625,0 1.57812,1.73437 1.59374,2.20312 z m 7.58203,-1.14062 v -1.51563 l -2.21875,0.10938 v 0.625 c 0.82813,0 0.92188,0 0.92188,0.51562 v 4.10938 h -0.92188 v 0.625 c 0.46875,-0.0156 1.0625,-0.0469 1.6875,-0.0469 0.5,0 1.34375,0 1.82813,0.0469 v -0.625 h -1.15625 v -2.32813 c 0,-0.92187 0.32812,-2.54687 1.65625,-2.54687 -0.0156,0.0156 -0.25,0.23437 -0.25,0.60937 0,0.54688 0.42187,0.8125 0.8125,0.8125 0.39062,0 0.8125,-0.28125 0.8125,-0.8125 0,-0.70312 -0.71875,-1.09375 -1.40625,-1.09375 -0.9375,0 -1.46875,0.67188 -1.76563,1.51563 z m 13.35938,-0.20313 c 0.92187,-0.28125 1.89062,-1.04687 1.89062,-2.1875 0,-1.01562 -1.01562,-1.84375 -2.89062,-1.84375 -1.57813,0 -2.60938,0.85938 -2.60938,1.92188 0,0.5625 0.40625,0.92187 0.92188,0.92187 0.59375,0 0.92187,-0.42187 0.92187,-0.92187 0,-0.76563 -0.71875,-0.90625 -0.76562,-0.92188 0.46875,-0.375 1.04687,-0.48437 1.45312,-0.48437 1.10938,0 1.14063,0.85937 1.14063,1.29687 0,0.17188 0,1.90625 -1.39063,1.98438 -0.54687,0.0312 -0.5625,0.0469 -0.64062,0.0625 -0.125,0.0156 -0.15625,0.14062 -0.15625,0.21875 0,0.23437 0.14062,0.23437 0.375,0.23437 h 0.57812 c 1.45313,0 1.45313,1.3125 1.45313,1.98438 0,0.625 0,1.98437 -1.375,1.98437 -0.34375,0 -1.04688,-0.0625 -1.67188,-0.45312 0.4375,-0.125 0.76563,-0.45313 0.76563,-1 0,-0.59375 -0.42188,-1 -1.01563,-1 -0.54687,0 -1.01562,0.34375 -1.01562,1.03125 0,1.1875 1.28125,1.98437 3,1.98437 2.375,0 3.34375,-1.32812 3.34375,-2.53125 0,-0.73437 -0.39063,-1.875 -2.3125,-2.28125 z m 0,0" style="fill:currentcolor;fill-opacity:1;fill-rule:nonzero;stroke:none;stroke-width:1.33333" aria-label="Layer3"/><path id="path113" d="m -366.71236,335.22479 h -0.625 c -0.10938,0.92188 -0.34375,3.01563 -2.71875,3.01563 h -1.35938 v -7.85938 h 1.78125 v -0.625 c -0.57812,0.0312 -2.03125,0.0312 -2.67187,0.0312 -0.59375,0 -1.9375,0 -2.4375,-0.0312 v 0.625 h 1.4375 v 7.85938 h -1.4375 v 0.625 h 7.60937 z m 5.60937,2.625 c 0,0.40625 0,1.01563 1.375,1.01563 h 0.64063 c 0.26562,0 0.42187,0 0.42187,-0.3125 0,-0.3125 -0.17187,-0.3125 -0.34375,-0.3125 -0.8125,-0.0156 -0.8125,-0.1875 -0.8125,-0.48438 v -2.85937 c 0,-1.1875 -0.9375,-2.04688 -2.92187,-2.04688 -0.75,0 -2.375,0.0469 -2.375,1.21875 0,0.59375 0.46875,0.84375 0.82812,0.84375 0.40625,0 0.82813,-0.28125 0.82813,-0.84375 0,-0.39062 -0.25,-0.625 -0.28125,-0.65625 0.375,-0.0781 0.79687,-0.0781 0.95312,-0.0781 1,0 1.45313,0.54687 1.45313,1.5625 v 0.45312 c -0.9375,0.0312 -4.3125,0.15625 -4.3125,2.07813 0,1.28125 1.65625,1.51562 2.5625,1.51562 1.0625,0 1.6875,-0.54687 1.98437,-1.09375 z m -0.23437,-2.09375 v 1.26563 c 0,1.26562 -1.21875,1.4375 -1.54688,1.4375 -0.67187,0 -1.20312,-0.45313 -1.20312,-1.04688 0,-1.42187 2.09375,-1.60937 2.75,-1.65625 z m 8.98437,-1.89062 c 0.0937,-0.1875 0.14063,-0.26563 0.98438,-0.26563 v -0.625 c -0.3125,0.0156 -0.71875,0.0312 -1.04688,0.0312 -0.32812,0 -0.9375,-0.0312 -1.20312,-0.0312 v 0.625 c 0.0156,0 0.60937,0 0.60937,0.15625 0,0.0156 -0.0469,0.14063 -0.0625,0.15625 l -1.53125,3.26563 -1.67188,-3.57813 h 0.70313 v -0.625 c -0.4375,0.0156 -1.625,0.0312 -1.64063,0.0312 -0.375,0 -0.96874,-0.0312 -1.51562,-0.0312 v 0.625 h 0.85938 l 2.46874,5.26563 -0.29688,0.64062 c -0.29687,0.64063 -0.71875,1.53125 -1.65625,1.53125 -0.1875,0 -0.21875,0 -0.32812,-0.0469 0.125,-0.0469 0.42187,-0.23438 0.42187,-0.70313 0,-0.4375 -0.3125,-0.75 -0.76562,-0.75 -0.375,0 -0.75,0.25 -0.75,0.76563 0,0.67187 0.625,1.21875 1.42187,1.21875 1.01563,0 1.78125,-0.82813 2.14063,-1.57813 z m 7.0586,2.10937 c 0.28125,0 0.42187,0 0.42187,-0.35937 0,-0.42188 -0.0781,-1.39063 -0.75,-2.04688 -0.48437,-0.48437 -1.1875,-0.71875 -2.10937,-0.71875 -2.125,0 -3.28125,1.35938 -3.28125,3.03125 0,1.78125 1.32812,3.0625 3.46875,3.0625 2.09375,0 2.67187,-1.40625 2.67187,-1.625 0,-0.25 -0.25,-0.25 -0.3125,-0.25 -0.23437,0 -0.26562,0.0625 -0.34375,0.28125 -0.28125,0.64063 -1.03125,1.0625 -1.89062,1.0625 -1.875,0 -1.89063,-1.76562 -1.89063,-2.4375 z m -4.01563,-0.4375 c 0.0313,-0.53125 0.0469,-1.07812 0.3125,-1.51562 0.35938,-0.53125 0.89063,-0.6875 1.26563,-0.6875 1.5625,0 1.57812,1.73437 1.59375,2.20312 z m 7.58203,-1.14062 v -1.51563 l -2.21875,0.10938 v 0.625 c 0.82813,0 0.92188,0 0.92188,0.51562 v 4.10938 h -0.92188 v 0.625 c 0.46875,-0.0156 1.0625,-0.0469 1.6875,-0.0469 0.5,0 1.34375,0 1.82813,0.0469 v -0.625 h -1.15625 v -2.32813 c 0,-0.92187 0.32812,-2.54687 1.65625,-2.54687 -0.0156,0.0156 -0.25,0.23437 -0.25,0.60937 0,0.54688 0.42187,0.8125 0.8125,0.8125 0.39062,0 0.8125,-0.28125 0.8125,-0.8125 0,-0.70312 -0.71875,-1.09375 -1.40625,-1.09375 -0.9375,0 -1.46875,0.67188 -1.76563,1.51563 z m 14.59375,2.39062 h 1.29688 v -0.625 h -1.29688 v -5.57812 c 0,-0.35938 -0.0156,-0.4375 -0.39062,-0.4375 -0.28125,0 -0.29688,0.0156 -0.45313,0.21875 l -4.64062,5.79687 v 0.625 h 3.82812 v 1.45313 h -1.48437 v 0.625 c 0.5,-0.0469 1.70312,-0.0469 2.28125,-0.0469 0.53125,0 1.6875,0 2.15625,0.0469 v -0.625 h -1.29688 z m -1.51562,-0.625 h -3.28125 l 3.28125,-4.10937 z m 0,0" style="fill:currentcolor;fill-opacity:1;fill-rule:nonzero;stroke:none;stroke-width:1.33333" aria-label="Layer4"/><path id="path114" d="m -272.22407,391.9162 h -0.625 c -0.10938,0.92187 -0.34375,3.01562 -2.71875,3.01562 h -1.35938 v -7.85937 h 1.78125 v -0.625 c -0.57812,0.0312 -2.03125,0.0312 -2.67187,0.0312 -0.59375,0 -1.9375,0 -2.4375,-0.0312 v 0.625 h 1.4375 v 7.85937 h -1.4375 v 0.625 h 7.60937 z m 5.61328,2.625 c 0,0.40625 0,1.01562 1.375,1.01562 h 0.64062 c 0.26563,0 0.42188,0 0.42188,-0.3125 0,-0.3125 -0.17188,-0.3125 -0.34375,-0.3125 -0.8125,-0.0156 -0.8125,-0.1875 -0.8125,-0.48437 v -2.85938 c 0,-1.1875 -0.9375,-2.04687 -2.92188,-2.04687 -0.75,0 -2.375,0.0469 -2.375,1.21875 0,0.59375 0.46875,0.84375 0.82813,0.84375 0.40625,0 0.82812,-0.28125 0.82812,-0.84375 0,-0.39063 -0.25,-0.625 -0.28125,-0.65625 0.375,-0.0781 0.79688,-0.0781 0.95313,-0.0781 1,0 1.45312,0.54688 1.45312,1.5625 v 0.45313 c -0.9375,0.0312 -4.3125,0.15625 -4.3125,2.07812 0,1.28125 1.65625,1.51563 2.5625,1.51563 1.0625,0 1.6875,-0.54688 1.98438,-1.09375 z m -0.23438,-2.09375 v 1.26562 c 0,1.26563 -1.21875,1.4375 -1.54687,1.4375 -0.67188,0 -1.20313,-0.45312 -1.20313,-1.04687 0,-1.42188 2.09375,-1.60938 2.75,-1.65625 z m 8.98438,-1.89063 c 0.0937,-0.1875 0.14062,-0.26562 0.98437,-0.26562 v -0.625 c -0.3125,0.0156 -0.71875,0.0312 -1.04687,0.0312 -0.32813,0 -0.9375,-0.0312 -1.20313,-0.0312 v 0.625 c 0.0156,0 0.60938,0 0.60938,0.15625 0,0.0156 -0.0469,0.14062 -0.0625,0.15625 l -1.53125,3.26562 -1.67188,-3.57812 h 0.70313 v -0.625 c -0.4375,0.0156 -1.625,0.0312 -1.64063,0.0312 -0.375,0 -0.96875,-0.0312 -1.51562,-0.0312 v 0.625 h 0.85937 l 2.46875,5.26562 -0.29687,0.64063 c -0.29688,0.64062 -0.71875,1.53125 -1.65625,1.53125 -0.1875,0 -0.21875,0 -0.32813,-0.0469 0.125,-0.0469 0.42188,-0.23437 0.42188,-0.70312 0,-0.4375 -0.3125,-0.75 -0.76563,-0.75 -0.375,0 -0.75,0.25 -0.75,0.76562 0,0.67188 0.625,1.21875 1.42188,1.21875 1.01562,0 1.78125,-0.82812 2.14062,-1.57812 z m 7.05859,2.10938 c 0.28125,0 0.42188,0 0.42188,-0.35938 0,-0.42187 -0.0781,-1.39062 -0.75,-2.04687 -0.48438,-0.48438 -1.1875,-0.71875 -2.10938,-0.71875 -2.125,0 -3.28125,1.35937 -3.28125,3.03125 0,1.78125 1.32813,3.0625 3.46875,3.0625 2.09375,0 2.67188,-1.40625 2.67188,-1.625 0,-0.25 -0.25,-0.25 -0.3125,-0.25 -0.23438,0 -0.26563,0.0625 -0.34375,0.28125 -0.28125,0.64062 -1.03125,1.0625 -1.89063,1.0625 -1.875,0 -1.89062,-1.76563 -1.89062,-2.4375 z m -4.01562,-0.4375 c 0.0312,-0.53125 0.0469,-1.07813 0.3125,-1.51563 0.35937,-0.53125 0.89062,-0.6875 1.26562,-0.6875 1.5625,0 1.57813,1.73438 1.59375,2.20313 z m 7.57812,-1.14063 v -1.51562 l -2.21875,0.10937 v 0.625 c 0.82813,0 0.92188,0 0.92188,0.51563 v 4.10937 h -0.92188 v 0.625 c 0.46875,-0.0156 1.0625,-0.0469 1.6875,-0.0469 0.5,0 1.34375,0 1.82813,0.0469 v -0.625 h -1.15625 v -2.32812 c 0,-0.92188 0.32812,-2.54688 1.65625,-2.54688 -0.0156,0.0156 -0.25,0.23438 -0.25,0.60938 0,0.54687 0.42187,0.8125 0.8125,0.8125 0.39062,0 0.8125,-0.28125 0.8125,-0.8125 0,-0.70313 -0.71875,-1.09375 -1.40625,-1.09375 -0.9375,0 -1.46875,0.67187 -1.76563,1.51562 z m 15.53516,1.79688 c 0,-1.53125 -1.04688,-2.76563 -3,-2.76563 -0.39063,0 -1.09375,0.0469 -1.71875,0.46875 v -1.75 c 0.375,0.0625 0.51562,0.0937 0.96875,0.0937 1.9375,0 3.15625,-1.5 3.15625,-1.82812 0,-0.0937 -0.0156,-0.25 -0.1875,-0.25 -0.0313,0 -0.0469,0 -0.1875,0.0625 -0.76563,0.28125 -1.46875,0.35937 -2.03125,0.35937 -1.01563,0 -1.71875,-0.25 -2.0625,-0.35937 -0.125,-0.0469 -0.14063,-0.0625 -0.17188,-0.0625 -0.1875,0 -0.1875,0.15625 -0.1875,0.35937 v 3.875 c 0,0.25 0,0.42188 0.29688,0.42188 0.17187,0 0.1875,-0.0625 0.28125,-0.15625 0.51562,-0.625 1.23437,-0.75 1.78125,-0.75 1.1875,0 1.1875,1.17187 1.1875,2.23437 0,0.96875 0,2.29688 -1.59375,2.29688 -0.32813,0 -1.15625,-0.0625 -1.71875,-0.82813 0.48437,-0.0312 0.85937,-0.34375 0.85937,-0.89062 0,-0.70313 -0.5625,-0.90625 -0.89062,-0.90625 -0.1875,0 -0.89063,0.125 -0.89063,0.9375 0,1.125 1.04688,2.25 2.6875,2.25 2.125,0 3.42188,-1.1875 3.42188,-2.8125 z m 0,0" style="fill:currentcolor;fill-opacity:1;fill-rule:nonzero;stroke:none;stroke-width:1.33333" aria-label="Layer5"/><path id="path115" d="m -709.38823,361.5238 56.2443,-14.06343" style="fill:none;stroke:#000000;stroke-width:0.531333;stroke-linecap:butt;stroke-linejoin:miter;stroke-miterlimit:10;stroke-dasharray:none;stroke-opacity:1"/><path id="path116" d="m -649.91478,346.65306 -5.05452,-0.5858 1.95423,1.3609 -1.08385,2.12046 z" style="fill:currentcolor;fill-opacity:1;fill-rule:nonzero;stroke:#000000;stroke-width:0.531322;stroke-linecap:butt;stroke-linejoin:miter;stroke-miterlimit:10;stroke-dasharray:none;stroke-opacity:1"/><path id="path117" d="m -709.38823,361.5238 56.7936,37.32071" style="fill:none;stroke:#000000;stroke-width:0.531333;stroke-linecap:butt;stroke-linejoin:miter;stroke-miterlimit:10;stroke-dasharray:none;stroke-opacity:1"/><path id="path118" d="m -649.81306,400.67233 -2.99378,-4.11415 0.3232,2.35926 -2.2938,0.63957 z" style="fill:currentcolor;fill-opacity:1;fill-rule:nonzero;stroke:#000000;stroke-width:0.531299;stroke-linecap:butt;stroke-linejoin:miter;stroke-miterlimit:10;stroke-dasharray:none;stroke-opacity:1"/><path id="path119" d="m -709.38823,474.91098 56.2443,-14.06338" style="fill:none;stroke:#000000;stroke-width:0.531333;stroke-linecap:butt;stroke-linejoin:miter;stroke-miterlimit:10;stroke-dasharray:none;stroke-opacity:1"/><path id="path120" d="m -649.91478,460.04028 -5.05452,-0.5858 1.95423,1.3609 -1.08385,2.12046 z" style="fill:currentcolor;fill-opacity:1;fill-rule:nonzero;stroke:#000000;stroke-width:0.531322;stroke-linecap:butt;stroke-linejoin:miter;stroke-miterlimit:10;stroke-dasharray:none;stroke-opacity:1"/><path id="path121" d="m -709.38823,474.91098 56.7936,37.32075" style="fill:none;stroke:#000000;stroke-width:0.531333;stroke-linecap:butt;stroke-linejoin:miter;stroke-miterlimit:10;stroke-dasharray:none;stroke-opacity:1"/><path id="path122" d="m -649.81306,514.05956 -2.99378,-4.11415 0.3232,2.35926 -2.2938,0.63957 z" style="fill:currentcolor;fill-opacity:1;fill-rule:nonzero;stroke:#000000;stroke-width:0.531299;stroke-linecap:butt;stroke-linejoin:miter;stroke-miterlimit:10;stroke-dasharray:none;stroke-opacity:1"/><path id="path123" d="m -618.41273,348.77707 61.02943,24.4143" style="fill:none;stroke:#000000;stroke-width:0.531333;stroke-linecap:butt;stroke-linejoin:miter;stroke-miterlimit:10;stroke-dasharray:none;stroke-opacity:1"/><path id="path124" d="m -554.29293,374.42754 -3.75449,-3.43426 0.78741,2.24741 -2.12014,1.08438 z" style="fill:currentcolor;fill-opacity:1;fill-rule:nonzero;stroke:#000000;stroke-width:0.531313;stroke-linecap:butt;stroke-linejoin:miter;stroke-miterlimit:10;stroke-dasharray:none;stroke-opacity:1"/><path id="path125" d="m -618.41273,443.71197 63.90347,-51.12848" style="fill:none;stroke:#000000;stroke-width:0.531333;stroke-linecap:butt;stroke-linejoin:miter;stroke-miterlimit:10;stroke-dasharray:none;stroke-opacity:1"/><path id="path126" d="m -551.91035,390.50411 -4.8387,1.5736 2.34347,0.4228 -0.10168,2.37914 z" style="fill:currentcolor;fill-opacity:1;fill-rule:nonzero;stroke:#000000;stroke-width:0.531302;stroke-linecap:butt;stroke-linejoin:miter;stroke-miterlimit:10;stroke-dasharray:none;stroke-opacity:1"/><path id="path127" d="m -618.41273,423.49083 63.90347,51.12849" style="fill:none;stroke:#000000;stroke-width:0.531333;stroke-linecap:butt;stroke-linejoin:miter;stroke-miterlimit:10;stroke-dasharray:none;stroke-opacity:1"/><path id="path128" d="m -551.91035,476.69872 -2.59691,-4.37554 0.10168,2.37914 -2.34347,0.42279 z" style="fill:currentcolor;fill-opacity:1;fill-rule:nonzero;stroke:#000000;stroke-width:0.531302;stroke-linecap:butt;stroke-linejoin:miter;stroke-miterlimit:10;stroke-dasharray:none;stroke-opacity:1"/><path id="path129" d="m -618.41273,518.42576 61.02943,-24.41428" style="fill:none;stroke:#000000;stroke-width:0.531333;stroke-linecap:butt;stroke-linejoin:miter;stroke-miterlimit:10;stroke-dasharray:none;stroke-opacity:1"/><path id="path130" d="m -554.29293,492.77531 -5.08722,0.10247 2.12014,1.08438 -0.78741,2.24741 z" style="fill:currentcolor;fill-opacity:1;fill-rule:nonzero;stroke:#000000;stroke-width:0.531313;stroke-linecap:butt;stroke-linejoin:miter;stroke-miterlimit:10;stroke-dasharray:none;stroke-opacity:1"/><path id="path131" d="m -523.92337,380.42165 h 59.6361" style="fill:none;stroke:#000000;stroke-width:0.531333;stroke-linecap:butt;stroke-linejoin:miter;stroke-miterlimit:10;stroke-dasharray:none;stroke-opacity:1"/><path id="path132" d="m -460.95868,380.42165 -4.7616,-1.79429 1.56583,1.79429 -1.56583,1.7943 z" style="fill:currentcolor;fill-opacity:1;fill-rule:nonzero;stroke:#000000;stroke-width:0.531333;stroke-linecap:butt;stroke-linejoin:miter;stroke-miterlimit:10;stroke-dasharray:none;stroke-opacity:1"/><path id="path133" d="m -529.0905,391.92185 71.3425,80.30521" style="fill:none;stroke:#000000;stroke-width:0.531333;stroke-linecap:butt;stroke-linejoin:miter;stroke-miterlimit:10;stroke-dasharray:none;stroke-opacity:1"/><path id="path134" d="m -455.53741,474.71534 -1.82096,-4.75111 -0.30141,2.36214 -2.38121,0.0211 z" style="fill:currentcolor;fill-opacity:1;fill-rule:nonzero;stroke:#000000;stroke-width:0.531299;stroke-linecap:butt;stroke-linejoin:miter;stroke-miterlimit:10;stroke-dasharray:none;stroke-opacity:1"/><path id="path135" d="m -529.0905,475.28094 71.3425,-80.30521" style="fill:none;stroke:#000000;stroke-width:0.531333;stroke-linecap:butt;stroke-linejoin:miter;stroke-miterlimit:10;stroke-dasharray:none;stroke-opacity:1"/><path id="path136" d="m -455.53741,392.48749 -4.50358,2.36786 2.38121,0.0211 0.30141,2.36214 z" style="fill:currentcolor;fill-opacity:1;fill-rule:nonzero;stroke:#000000;stroke-width:0.531299;stroke-linecap:butt;stroke-linejoin:miter;stroke-miterlimit:10;stroke-dasharray:none;stroke-opacity:1"/><path id="path137" d="m -523.92337,486.78117 h 59.6361" style="fill:none;stroke:#000000;stroke-width:0.531333;stroke-linecap:butt;stroke-linejoin:miter;stroke-miterlimit:10;stroke-dasharray:none;stroke-opacity:1"/><path id="path138" d="m -460.95868,486.78117 -4.7616,-1.79429 1.56583,1.79429 -1.56583,1.7943 z" style="fill:currentcolor;fill-opacity:1;fill-rule:nonzero;stroke:#000000;stroke-width:0.531333;stroke-linecap:butt;stroke-linejoin:miter;stroke-miterlimit:10;stroke-dasharray:none;stroke-opacity:1"/><path id="path139" d="m -429.43401,380.42165 h 59.6361" style="fill:none;stroke:#000000;stroke-width:0.531333;stroke-linecap:butt;stroke-linejoin:miter;stroke-miterlimit:10;stroke-dasharray:none;stroke-opacity:1"/><path id="path140" d="m -366.46932,380.42165 -4.7616,-1.79429 1.56583,1.79429 -1.56583,1.7943 z" style="fill:currentcolor;fill-opacity:1;fill-rule:nonzero;stroke:#000000;stroke-width:0.531333;stroke-linecap:butt;stroke-linejoin:miter;stroke-miterlimit:10;stroke-dasharray:none;stroke-opacity:1"/><path id="path141" d="m -429.43401,486.78117 h 59.6361" style="fill:none;stroke:#000000;stroke-width:0.531333;stroke-linecap:butt;stroke-linejoin:miter;stroke-miterlimit:10;stroke-dasharray:none;stroke-opacity:1"/><path id="path142" d="m -366.46932,486.78117 -4.7616,-1.79429 1.56583,1.79429 -1.56583,1.7943 z" style="fill:currentcolor;fill-opacity:1;fill-rule:nonzero;stroke:#000000;stroke-width:0.531333;stroke-linecap:butt;stroke-linejoin:miter;stroke-miterlimit:10;stroke-dasharray:none;stroke-opacity:1"/><path id="path143" d="m -334.94466,389.64485 62.41127,37.45358" style="fill:none;stroke:#000000;stroke-width:0.531333;stroke-linecap:butt;stroke-linejoin:miter;stroke-miterlimit:10;stroke-dasharray:none;stroke-opacity:1"/><path id="path144" d="m -269.67929,428.81119 -3.15952,-3.98863 0.41933,2.34421 -2.26587,0.73279 z" style="fill:currentcolor;fill-opacity:1;fill-rule:nonzero;stroke:#000000;stroke-width:0.531327;stroke-linecap:butt;stroke-linejoin:miter;stroke-miterlimit:10;stroke-dasharray:none;stroke-opacity:1"/><path id="path145" d="m -334.94466,478.69857 61.8726,-32.52558" style="fill:none;stroke:#000000;stroke-width:0.531333;stroke-linecap:butt;stroke-linejoin:miter;stroke-miterlimit:10;stroke-dasharray:none;stroke-opacity:1"/><path id="path146" d="m -270.12585,444.62431 -5.04941,0.62726 2.22077,0.85963 -0.55111,2.3167 z" style="fill:currentcolor;fill-opacity:1;fill-rule:nonzero;stroke:#000000;stroke-width:0.53131;stroke-linecap:butt;stroke-linejoin:miter;stroke-miterlimit:10;stroke-dasharray:none;stroke-opacity:1"/><path id="path147" d="m -240.45528,437.11525 h 18.32651" style="fill:none;stroke:#000000;stroke-width:0.531333;stroke-linecap:butt;stroke-linejoin:miter;stroke-miterlimit:10;stroke-dasharray:none;stroke-opacity:1"/><path id="path148" d="m -218.80016,437.11525 -4.7616,-1.79429 1.56583,1.79429 -1.56583,1.7943 z" style="fill:currentcolor;fill-opacity:1;fill-rule:nonzero;stroke:#000000;stroke-width:0.531333;stroke-linecap:butt;stroke-linejoin:miter;stroke-miterlimit:10;stroke-dasharray:none;stroke-opacity:1"/></g></g></svg>
